<svg xmlns="http://www.w3.org/2000/svg">
  <symbol id="logo" viewBox="0 0 165 40"><style>.st0{fill:#0B3B81;} .st1{fill:#F9B300;} .st2{fill:#262625;}</style><path d="M46.5 5.2c-.3-.8-.6-1.5-.8-2-.2-.5-.5-1-.8-1.5-.3-.5-.8-.9-1.4-1.2-1.1-.6-3.1-.6-4.2 0-.6.3-1 .7-1.4 1.3-.3.5-.6 1.1-.9 1.8l-7.4 18.6c-.3.7-.5 1.2-.6 1.6-.1.4-.2.9-.2 1.3 0 .8.3 1.4.9 2 .6.6 1.3.9 2.1.9 1 0 1.7-.3 2.1-.9.4-.5.8-1.4 1.3-2.8l1.1-3h9.9l1.1 2.9c.2.4.4.9.6 1.4.3.6.5 1 .7 1.3.3.3.6.6.9.7.4.2.8.3 1.3.3.9 0 1.6-.3 2.2-.9.6-.6.9-1.3.9-2s-.3-1.6-.8-3L46.5 5.2zm-8.2 11l3.1-8.6 3.2 8.6h-6.3zM60.4 0c-.9 0-1.7.3-2.3 1-.6.6-.9 1.6-.9 2.8v20.4c0 1.2.3 2.1.9 2.8.6.7 1.4 1 2.3 1 1 0 1.7-.3 2.3-1 .6-.6.9-1.6.9-2.8V3.7c0-1.2-.3-2.1-.9-2.8-.6-.6-1.4-.9-2.3-.9M137.8 20.2c-.7-1.1-1.5-2.2-2.3-3.2-.6-.6-1.2-1.2-1.8-1.6 1.7-.5 3.1-1.3 4.1-2.3 1.2-1.3 1.8-2.9 1.8-5 0-1-.2-2-.5-2.9-.4-.9-.9-1.7-1.6-2.4-.7-.7-1.5-1.2-2.3-1.6-.7-.3-1.5-.5-2.4-.7-.9-.1-1.9-.2-3.1-.2H121c-1.3 0-2.3.3-2.9.9-.6.6-.9 1.6-.9 2.8v19.9c0 1.2.3 2.1.8 2.7.6.7 1.4 1 2.4 1 .9 0 1.7-.3 2.3-1 .6-.6.9-1.6.9-2.8V16h1.3c.9 0 1.6.1 2.1.3.5.2 1.1.6 1.6 1.2.6.6 1.2 1.6 2 2.9l2.1 3.5c.5.8.9 1.5 1.2 1.9.3.5.7.9 1.2 1.2.5.3 1.1.5 1.8.5.6 0 1.1-.1 1.6-.4.5-.2.8-.6 1.1-1 .3-.4.4-.9.4-1.3 0-.3-.1-.8-.6-2-.4-.5-.9-1.5-1.6-2.6M86.5 13.1c-.9-.6-2-1.1-3.2-1.6-1.2-.4-2.6-.8-4.1-1.1-1.2-.3-2-.5-2.5-.7-.5-.1-.9-.3-1.4-.6-.4-.2-.8-.5-1-.8-.2-.3-.3-.6-.3-1 0-.7.3-1.2 1-1.7s1.7-.8 3-.8 2.3.2 2.9.7c.6.5 1.1 1.2 1.6 2.1.4.7.8 1.3 1.1 1.6.4.4 1 .6 1.8.6s1.5-.3 2.1-.9c.5-.6.8-1.3.8-2 0-.8-.2-1.6-.6-2.3-.4-.8-1-1.5-1.8-2.2C85 1.6 84 1 82.7.6 81.5.2 80.1 0 78.4 0c-2.1 0-3.9.3-5.5.9-1.6.6-2.8 1.6-3.7 2.7-.8 1.3-1.2 2.7-1.2 4.2 0 1.6.4 3 1.2 4.1.8 1.1 1.9 1.9 3.2 2.6 1.3.6 2.9 1.1 4.8 1.6 1.4.3 2.5.6 3.3.9.8.3 1.4.6 1.8 1.1.4.4.6 1 .6 1.7 0 .9-.4 1.7-1.3 2.3-.9.7-2.1 1-3.5 1-1 0-1.9-.2-2.5-.5-.6-.3-1.1-.7-1.4-1.2-.4-.5-.7-1.2-1-2-.3-.8-.7-1.4-1.1-1.8-.5-.4-1.1-.7-1.8-.7-.8 0-1.5.3-2.1.8-.5.6-.8 1.2-.8 2 0 1.2.4 2.4 1.2 3.7.8 1.2 1.8 2.2 3.1 3 1.8 1 4 1.5 6.7 1.5 2.2 0 4.2-.4 5.8-1.1 1.7-.7 2.9-1.8 3.8-3.1.9-1.3 1.3-2.9 1.3-4.5 0-1.4-.3-2.6-.8-3.6-.4-1-1.1-1.8-2-2.5M111 22.2H99.2v-6.3h10.4c1 0 1.7-.2 2.2-.7.5-.5.8-1.1.8-1.8s-.3-1.4-.8-1.8c-.5-.5-1.2-.7-2.2-.7H99.2V5.6h11.4c1 0 1.7-.2 2.3-.7.5-.5.8-1.1.8-1.9 0-.8-.3-1.4-.8-1.9s-1.3-.7-2.3-.7h-14c-.8 0-1.5.1-2.1.4-.6.3-1 .7-1.3 1.3-.3.5-.4 1.2-.4 2.1v19.5c0 1.3.3 2.2.9 2.8.6.6 1.6.9 2.9.9H111c1 0 1.7-.2 2.3-.7.5-.5.8-1.1.8-1.9 0-.8-.3-1.4-.8-1.9-.6-.5-1.3-.7-2.3-.7M26.3 2.9c-.1-.8-.5-1.4-1.1-1.8l-.6-.3C24 .5 23.3.4 22.4.4h-2.6c-.4 0-.7.1-.9.1h-.1c-.1 0-.3.1-.4.1-.2.3-.4.4-.6.6-.2.2-.4.5-.5.7-.2.4-.4 1-.6 1.7-.1.2-.1.4-.2.6l-3.3 12.2L9.9 4.3c-.1-.2-.1-.4-.2-.6-.2-.8-.4-1.3-.6-1.7-.1-.3-.3-.6-.5-.8-.2-.2-.5-.3-.8-.5-.1 0-.2-.1-.4-.1h-.1c-.2 0-.5-.1-.8-.1H3.8C3 .4 2.3.6 1.7.8l-.6.3C.4 1.6 0 2.5 0 3.9v20.5c0 1.1.3 2 .8 2.6.4.5.9.7 1.5.9h1.3c.6-.1 1.1-.4 1.5-.9.6-.6.9-1.5.9-2.6V10.8L9 23v.2c.1.5.3 1 .4 1.4v.2c.1.3.2.5.2.7.2.5.4.9.8 1.3l.1.1c.1.1.1.2.2.2.1.1.3.2.4.3.3.2.7.3 1.1.4h1.5c.4-.1.8-.2 1.1-.4.1-.1.3-.2.4-.3.1-.1.1-.2.2-.2l.1-.1c.4-.4.7-.8.8-1.3.1-.2.1-.5.2-.7v-.1-.1c.1-.4.2-.9.4-1.4V23L20 10.9v13.5c0 1.1.3 2 .8 2.6.4.5.9.7 1.5.9H24c.6-.1 1.1-.4 1.5-.9.5-.6.8-1.5.8-2.6V3.9v-1M164.1.9c-.6-.6-1.3-.9-2.2-.9-1.1 0-1.9.4-2.4 1.1-.4.6-.8 1.5-1.2 2.8l-5.4 15.8-5.4-15.8c-.4-1.3-.8-2.2-1.2-2.8-.5-.7-1.3-1.1-2.4-1.1-.9 0-1.6.3-2.2.9-.6.6-.9 1.3-.9 2 0 .3 0 .6.1 1s.2.7.3 1l.3.9 6.2 16.8c.2.7.5 1.3.7 1.9.2.6.5 1.2.8 1.6.3.5.8 1 1.4 1.3.6.3 1.3.5 2.1.5h.2c.8 0 1.5-.2 2.1-.5.6-.3 1-.7 1.4-1.3.3-.5.6-1 .8-1.6.2-.6.5-1.2.7-1.9l6.2-16.8.3-.9c.1-.3.2-.7.3-1 .1-.4.1-.7.1-1 .2-.7-.1-1.4-.7-2" fill="#0B3B81"/><path d="M123.6 6.5c0-1.2.9-1.8 2.1-1.4l7.5 2.7c1.1.4 1.1 1.1 0 1.5l-7.5 2.7c-1.1.4-2.1-.2-2.1-1.4V6.5z" fill="#F9B300"/><path d="M28.8 34.2v-.3h4.6v.3h-2.1v5.7h-.4v-5.7zM36.4 33.9h2.5c.3 0 .5 0 .7.1.2 0 .4.1.6.3.2.1.3.3.4.5.1.2.2.4.2.7 0 .4-.1.7-.3 1-.2.3-.5.4-1 .5.2 0 .4.1.6.2.1.1.3.2.3.3.1.1.2.2.2.4 0 .1.1.3.1.5v1.4c0 .1.1.2.1.3h-.4c-.1-.1-.1-.2-.1-.4v-.4-.5-.5c0-.1 0-.3-.1-.4-.1-.1-.1-.2-.2-.3-.1-.1-.2-.2-.4-.2-.2-.1-.4-.1-.7-.1h-2.2V40h-.4v-6.1zm2.5 2.9c.2 0 .4 0 .6-.1.2-.1.4-.1.5-.2.1-.1.2-.3.3-.4.1-.2.1-.4.1-.6 0-.2 0-.4-.1-.6-.1-.2-.2-.3-.3-.4-.1-.1-.3-.2-.5-.2s-.4-.1-.6-.1h-2.2v2.6h2.2zM46.4 33.9l2.4 6h-.4l-.8-1.9h-2.9l-.7 1.9h-.4l2.4-6h.4zm1.2 3.7l-1.3-3.4-1.3 3.4h2.6zM51.8 33.9h2c.5 0 1 .1 1.4.3.4.2.6.4.9.7.2.3.4.6.5 1 .1.4.1.7.1 1.1 0 .4-.1.8-.2 1.2-.1.4-.3.7-.5 1-.2.3-.5.5-.9.6-.4.2-.8.2-1.3.2h-2v-6.1zm.4 5.6h1.6c.3 0 .6 0 .8-.1.3-.1.5-.2.8-.4.2-.2.4-.5.6-.8.1-.3.2-.8.2-1.3 0-.4 0-.8-.1-1-.1-.3-.2-.5-.3-.7-.1-.2-.3-.4-.5-.5-.2-.1-.3-.2-.5-.3-.2-.1-.4-.1-.5-.1h-2.1v5.2zM60 33.9h.4v6H60zM64 33.9h.4l3.9 5.5v-5.5h.4v6h-.5l-3.8-5.6v5.6H64zM77.5 36.9v2.9h-.3v-1.3l-.3.6c-.1.2-.3.3-.5.4-.2.1-.4.2-.7.3-.3.2-.6.2-.8.2-.5 0-.9-.1-1.2-.2-.4-.2-.6-.4-.9-.7-.2-.3-.4-.6-.6-1-.1-.4-.2-.8-.2-1.2 0-.4.1-.8.2-1.2.1-.4.3-.7.6-1 .2-.3.5-.5.9-.7.3-.2.8-.3 1.2-.3.3 0 .6 0 .9.1.3.1.5.2.8.4l.6.6c.2.2.3.5.3.8h-.4c-.1-.5-.4-.9-.8-1.2-.4-.3-.8-.5-1.4-.5-.4 0-.8.1-1.1.2-.3.2-.6.4-.8.6-.2.3-.4.6-.5.9-.1.3-.2.7-.2 1.1 0 .4.1.7.2 1.1.1.3.3.6.5.9.2.3.5.5.8.6.3.1.7.2 1.1.2.4 0 .7-.1 1-.2.3-.1.5-.3.7-.5.2-.2.4-.5.5-.8.1-.3.1-.6.1-1H75v-.3h2.5zM90.7 35.7c0-.2-.1-.5-.2-.7-.1-.2-.3-.4-.5-.5l-.6-.3c-.2-.1-.5-.1-.7-.1-.4 0-.7.1-1.1.2-.3.2-.6.4-.8.6-.2.3-.4.6-.5.9-.1.3-.2.7-.2 1.1 0 .4.1.7.2 1.1.1.3.3.6.5.9.2.3.5.5.8.6.3.2.7.2 1.1.2.3 0 .6-.1.8-.2.3-.1.5-.3.7-.5.2-.2.3-.4.5-.7.1-.3.2-.5.2-.8h.4c0 .4-.1.7-.3 1-.1.3-.3.6-.6.8-.2.2-.5.4-.8.5-.3.1-.6.2-1 .2-.5 0-.9-.1-1.2-.2-.4-.2-.7-.4-.9-.7-.2-.3-.4-.6-.6-1-.1-.4-.2-.8-.2-1.2 0-.4.1-.8.2-1.2.1-.4.3-.7.6-1 .2-.3.5-.5.9-.7.4-.2.8-.2 1.2-.2.4 0 .7 0 .9.1.3.1.5.2.7.3.2.1.3.3.4.4.1.2.2.3.3.5.1.1.1.3.1.4v.2h-.3zM99.8 38.1c-.1.4-.3.7-.6 1-.2.3-.5.5-.9.7-.4.2-.8.2-1.2.2-.5 0-.9-.1-1.2-.2-.4-.2-.7-.4-.9-.7-.2-.3-.4-.6-.6-1-.1-.4-.2-.8-.2-1.2 0-.4.1-.8.2-1.2.1-.4.3-.7.6-1 .2-.3.5-.5.9-.7.4-.2.8-.2 1.2-.2.5 0 .8.1 1.2.2.3.2.7.4.9.7.2.3.4.6.6 1 .1.4.2.8.2 1.2 0 .4-.1.8-.2 1.2m-5.1-.1c.1.3.3.6.5.9.2.3.5.5.8.6.3.2.7.2 1.1.2.4 0 .7-.1 1-.2.3-.2.6-.3.8-.6.2-.3.4-.6.5-.9.1-.3.2-.7.2-1.1 0-.4-.1-.8-.2-1.1-.1-.3-.3-.6-.5-.9-.2-.3-.5-.5-.8-.6-.3-.1-.7-.2-1-.2-.4 0-.8.1-1.1.2-.3.2-.6.4-.8.6-.2.3-.4.6-.5.9-.1.3-.2.7-.2 1.1.1.4.1.7.2 1.1M103.3 33.9h.5l2.4 5.5 2.3-5.5h.6v6h-.4v-5.6l-2.3 5.6h-.4l-2.3-5.6v5.6h-.4zM112.7 33.9h2.6c.2 0 .4 0 .6.1.2 0 .4.1.6.2.2.1.3.3.4.5.1.2.2.5.2.9 0 .5-.2.9-.5 1.2-.3.3-.8.4-1.4.4h-2.1v2.7h-.4v-6zm.4 3h2.1c.3 0 .5 0 .7-.1.2-.1.3-.2.5-.3.1-.1.2-.3.2-.4 0-.2.1-.3.1-.5 0-.1 0-.2-.1-.4 0-.2-.1-.3-.2-.4-.1-.1-.2-.3-.4-.4-.2-.1-.4-.2-.7-.2h-2.2v2.7zM122 33.9l2.4 6h-.4l-.8-1.9h-2.9l-.8 1.9h-.4l2.4-6h.5zm1.1 3.7l-1.3-3.4-1.4 3.4h2.7zM127.3 33.9h.5l3.8 5.5v-5.5h.4v6h-.4l-3.9-5.6v5.6h-.4zM139.7 33.9h.4l-2.4 3.5v2.5h-.4v-2.5l-2.4-3.5h.4l2.2 3.1z" fill="#262625"/></symbol>
  <symbol id="slogan" viewBox="0 0 1140 500"><path d="M114.9 44.5h24.8v119.3h47.9v22.7h-72.7v-142zM213.8 181.5a45 45 0 0 1-15.5-19.1c-3.6-8-5.4-16.8-5.4-26.4 0-9.6 1.8-18.4 5.4-26.4 3.6-8 8.8-14.3 15.5-19.1a40.9 40.9 0 0 1 23.9-7.1 41.7 41.7 0 0 1 39.7 26.2c3.6 8 5.4 16.8 5.4 26.4 0 9.6-1.8 18.4-5.4 26.4-3.6 8-8.8 14.3-15.6 19.1a41.5 41.5 0 0 1-24.1 7.1 40 40 0 0 1-23.9-7.1zm38.8-21.7c3.6-6 5.4-13.9 5.4-23.7 0-9.9-1.8-17.8-5.4-23.7-3.6-6-8.6-8.9-14.9-8.9-6.2 0-11.1 3-14.7 9-3.6 6-5.4 13.9-5.4 23.6s1.8 17.6 5.4 23.6c3.6 6 8.5 9 14.7 9 6.4 0 11.4-2.9 14.9-8.9zM303 229.8c-7.4-5-11.1-12-11.1-20.9 0-5 1.3-9.4 3.9-13.2 2.6-3.8 6.4-7.2 11.4-10.1-5.8-3.4-8.7-8-8.7-14 0-5.8 3.2-10.6 9.5-14.4a36.6 36.6 0 0 1-11.4-14.3 45.9 45.9 0 0 1-4.1-19.4c0-7.4 1.5-14.2 4.4-20.3a33.5 33.5 0 0 1 12.7-14.4c5.5-3.5 12-5.3 19.5-5.3 8.8 0 16.2 2.4 22.3 7.3a25.5 25.5 0 0 1 22.1-6.9l-1.8 15.6a19 19 0 0 0-4.1-.4c-2.8 0-5.4.5-7.7 1.6a44.2 44.2 0 0 1 5.7 22.7c0 7.4-1.5 14.2-4.4 20.3a34.4 34.4 0 0 1-32.2 19.9c-3 0-5.5-.3-7.7-.8a4.2 4.2 0 0 0-1.8 3.5c0 1.4.5 2.4 1.4 3.1a13 13 0 0 0 4.9 1.9l20.9 4.9a44 44 0 0 1 21.5 10.2 25.8 25.8 0 0 1 6.7 19 27 27 0 0 1-5.4 16.7 35 35 0 0 1-15.1 11.2c-6.5 2.6-13.9 4-22.1 4-12.2 0-22-2.5-29.3-7.5zm45-13.9c3.9-2.1 5.8-5.1 5.8-9 0-3.2-1-5.8-3.1-7.6a27.5 27.5 0 0 0-10.9-4.6l-17.5-4.3a27.7 27.7 0 0 0-8.2 6.8 13.2 13.2 0 0 0-2.7 8.2c0 4.3 2 7.7 5.9 10 3.9 2.4 9.1 3.6 15.6 3.6 6.2.1 11.3-1 15.1-3.1zm-8.5-76.5c2.5-4 3.8-9.3 3.8-15.9 0-6.5-1.3-11.7-3.8-15.7s-6-6-10.5-6c-4.6 0-8.1 2-10.6 6-2.4 4-3.7 9.2-3.7 15.7 0 6.6 1.2 11.9 3.7 15.9 2.4 4 6 6 10.6 6 4.5 0 8-2 10.5-6zM384.3 44.5h24.4v25.2h-24.4V44.5zm0 40.6h24.4v101.5h-24.4V85.1zM437.3 186.9a60.3 60.3 0 0 1-13.9-5.4l2.2-21.5a46.1 46.1 0 0 0 25 9.7c4.6 0 8.1-.9 10.6-2.6a8.7 8.7 0 0 0 3.7-7.3c0-3.2-1.1-5.9-3.3-8a55.6 55.6 0 0 0-13.1-7.8 59.7 59.7 0 0 1-18.8-12.9 26.5 26.5 0 0 1-5.8-18.2c0-8.8 3.1-15.9 9.3-21.3a37 37 0 0 1 25.2-8.1c9.5 0 18.3 2.5 26.6 7.5l-2.2 20.9c-3.9-3.4-7.7-6-11.3-7.7a25.2 25.2 0 0 0-11.5-2.6c-3.9 0-7.1.8-9.4 2.5a8.3 8.3 0 0 0-3.6 7.2 9 9 0 0 0 3.8 7.6c2.5 2 7.5 4.9 15.1 8.8a47.4 47.4 0 0 1 16.7 12.9 29 29 0 0 1 5.4 18.2c0 9.2-3.2 16.5-9.6 21.8-6.4 5.3-15.1 8-25.9 8-5.6 0-10.6-.6-15.2-1.7zM513.2 181.9c-4.1-4.5-6.2-11.1-6.2-19.9v-56.2h-11.4l2.2-20.7h9.1V62.8l24.4-2.6v25H549v20.7h-17.7v49.9c0 4.2.8 7.3 2.5 9.2 1.7 2 4.4 2.9 8 2.9h7.3l-2.2 20.7h-16a23 23 0 0 1-17.7-6.7zM562 44.5h24.4v25.2H562V44.5zm0 40.6h24.4v101.5H562V85.1zM622 181.6a43.7 43.7 0 0 1-16.3-19c-3.7-8-5.5-16.8-5.5-26.6 0-9.9 1.8-18.8 5.5-26.7a44.2 44.2 0 0 1 43.2-25.9 49 49 0 0 1 19.5 3.5l-1.8 19.9a34.5 34.5 0 0 0-14.8-3.5c-8.4 0-15 3-19.7 8.9-4.7 6-7.1 13.9-7.1 23.7 0 9.6 2.3 17.5 7 23.5s11.2 9.1 19.6 9.1c5.5 0 10.8-1.2 15.6-3.7l1.6 19.5a40.8 40.8 0 0 1-9.3 2.9c-3.7.7-7.4 1.1-11.4 1.1-10.1.3-18.8-2-26.1-6.7z"/><path d="M499.2 230.6h23.4c5.9 0 11.2 1.5 15.9 4.4 4.6 2.9 8.3 7.1 10.9 12.6 2.6 5.5 3.9 11.9 3.9 19.4s-1.3 13.9-3.9 19.4a29.4 29.4 0 0 1-10.9 12.6 29.2 29.2 0 0 1-15.9 4.4h-23.4v-72.8zm23.4 61.1c5.5 0 9.7-2.2 12.6-6.5a33.5 33.5 0 0 0 4.3-18.2c0-7.7-1.4-13.8-4.3-18.2-2.8-4.4-7-6.5-12.6-6.5h-10.8v49.4h10.8zM560.4 230.6h12.5v12.9h-12.5v-12.9zm0 20.8h12.5v51.9h-12.5v-51.9zM587.5 303.4c-2.3-.6-4.7-1.5-7.1-2.7l1.1-11c4.8 3.3 9.1 5 12.8 5 2.3 0 4.2-.4 5.4-1.3a4.4 4.4 0 0 0 1.9-3.7c0-1.7-.6-3-1.7-4.1a28 28 0 0 0-6.7-4 29.5 29.5 0 0 1-9.6-6.6c-2-2.2-3-5.3-3-9.3 0-4.5 1.6-8.1 4.8-10.9 3.2-2.8 7.5-4.2 12.9-4.2 4.8 0 9.4 1.3 13.6 3.8l-1.1 10.7c-2-1.7-3.9-3-5.8-3.9a13 13 0 0 0-5.9-1.3c-2 0-3.6.4-4.8 1.3a4.3 4.3 0 0 0-1.8 3.7c0 1.6.6 2.9 1.9 3.9 1.3 1 3.9 2.5 7.7 4.5 3.9 2 6.7 4.2 8.6 6.6 1.8 2.4 2.8 5.5 2.8 9.3 0 4.7-1.6 8.4-4.9 11.2a20.2 20.2 0 0 1-13.2 4.1 43 43 0 0 1-7.9-1.1zM626.3 300.9c-2.1-2.3-3.2-5.7-3.2-10.2V262h-5.8l1.1-10.6h4.7V240l12.5-1.3v12.8h9V262h-9v25.5c0 2.1.4 3.7 1.3 4.7s2.2 1.5 4.1 1.5h3.7l-1.1 10.6h-8.2c-3.9 0-7-1.1-9.1-3.4zM651.4 251.4h10.9l.8 5.5c1.9-2.1 3.8-3.7 5.4-4.8a11.7 11.7 0 0 1 8.7-1.3l-.9 12.6c-1-.3-2.1-.5-3.3-.5-1.7 0-3.1.4-4.5 1.1a26 26 0 0 0-4.7 3.8v35.4h-12.5v-51.8zM681.1 230.6h12.5v12.9h-12.5v-12.9zm0 20.8h12.5v51.9h-12.5v-51.9zM738.5 254.2a22 22 0 0 1 6.8 9.8c1.6 4.1 2.3 8.6 2.3 13.5a39 39 0 0 1-2.3 13.5 23.4 23.4 0 0 1-6.8 9.8c-3 2.4-6.6 3.6-10.8 3.6-4.8 0-8.9-1.6-12.5-4.7l-.3 3.6h-11.6v-77.8h12.5V255a17.7 17.7 0 0 1 22.7-.8zm-6.1 35.4c1.7-3 2.6-7.1 2.6-12.1s-.9-9.1-2.6-12.1c-1.7-3-4.1-4.6-7.2-4.6a8.2 8.2 0 0 0-7.6 4.5 25 25 0 0 0-2.5 12.2c0 5.1.8 9.2 2.5 12.2s4.2 4.5 7.6 4.5c3.1-.1 5.5-1.6 7.2-4.6zM794 251.4v51.9h-10.8l-.5-4a17.4 17.4 0 0 1-12.7 4.9c-5.2 0-9.1-1.7-11.9-5.1-2.7-3.4-4.1-8-4.1-13.9v-33.7h12.5v32.1c0 7 2.4 10.5 7.1 10.5 3.3 0 5.9-1.5 8-4.5v-38.1H794zM808.4 300.9c-2.1-2.3-3.2-5.7-3.2-10.2V262h-5.8l1.1-10.6h4.7V240l12.5-1.3v12.8h9V262h-9v25.5c0 2.1.4 3.7 1.3 4.7s2.2 1.5 4.1 1.5h3.7l-1.1 10.6h-8.2c-3.9 0-7-1.1-9.1-3.4zM833.4 230.6h12.5v12.9h-12.5v-12.9zm0 20.8h12.5v51.9h-12.5v-51.9zM863.6 300.7a22.5 22.5 0 0 1-7.9-9.8 33.3 33.3 0 0 1 0-27c1.8-4.1 4.5-7.3 7.9-9.8 3.5-2.4 7.5-3.6 12.2-3.6a21.2 21.2 0 0 1 20.3 13.4c1.8 4.1 2.7 8.6 2.7 13.5s-.9 9.4-2.7 13.5a21.2 21.2 0 0 1-20.3 13.4c-4.7 0-8.8-1.2-12.2-3.6zm19.8-11.1c1.8-3 2.8-7.1 2.8-12.1s-.9-9.1-2.8-12.1a8.6 8.6 0 0 0-7.6-4.6c-3.2 0-5.7 1.5-7.5 4.6-1.8 3.1-2.8 7.1-2.8 12.1s.9 9 2.8 12.1c1.8 3.1 4.3 4.6 7.5 4.6a8.7 8.7 0 0 0 7.6-4.6zM942.4 255.7c2.7 3.4 4.1 8 4.1 13.9v33.7H934v-32.1c0-7-2.4-10.5-7.1-10.5-3.3 0-5.9 1.5-8 4.5v38.1h-12.5v-51.9h10.8l.5 4c3.4-3.3 7.6-4.9 12.7-4.9 5.3.1 9.2 1.8 12 5.2z"/><path d="M288.6 439.6a59.5 59.5 0 0 1-14.6-4.9l2.4-21.3a63 63 0 0 0 30.4 8.8c5 0 8.9-1 11.7-3.1a10 10 0 0 0 4.2-8.7c0-2.8-.7-5.2-2.1-7.3-1.4-2-3.7-4-6.7-6-3.1-1.9-7.5-4.2-13.2-6.8a60.8 60.8 0 0 1-20.3-13.3 26.8 26.8 0 0 1-6.3-18.5c0-6.1 1.5-11.4 4.4-16.1 2.9-4.7 7.2-8.4 12.7-11 5.5-2.7 12.1-4 19.7-4 9.5 0 19 2.1 28.5 6.4l-2 20.7a95 95 0 0 0-14.6-5.9c-4.4-1.3-8.9-2-13.4-2a18 18 0 0 0-11 2.8c-2.6 1.9-3.8 4.6-3.8 8.3 0 2.8.8 5.2 2.5 7.1 1.7 1.9 3.7 3.6 6.2 5s6.9 3.6 13.4 6.7a62.6 62.6 0 0 1 20.3 14.1 28.1 28.1 0 0 1 6.3 19 29 29 0 0 1-10 23.2 41.3 41.3 0 0 1-27.6 8.6c-5.9 0-11.5-.6-17.1-1.8zM354.9 435.1c-4-3.8-6-9.2-6-16.1 0-7.2 2.2-13 6.5-17.3 4.3-4.3 9.3-7.4 15-9.3a57.3 57.3 0 0 1 15.6-3.1c0-4.6-.8-7.9-2.5-9.9s-4.5-3-8.6-3a28 28 0 0 0-9.1 1.5c-2.9 1-6.2 2.5-9.9 4.5l-1.3-15.8a52 52 0 0 1 25.2-6.9 24 24 0 0 1 18.4 7c4.4 4.6 6.7 12 6.7 22v23.7c0 3.9.2 6.7.5 8.5.3 1.8.8 2.9 1.5 3.4s1.7.7 3.2.7h2.5l-1.3 16H403c-2.9 0-5.7-.8-8.4-2.5a15.6 15.6 0 0 1-5.9-6.6c-2.8 3-5.7 5.3-8.6 6.8a22.6 22.6 0 0 1-25.2-3.6zm31.2-14.8v-17.9c-5 .6-9.2 2.1-12.5 4.5-3.3 2.3-5 5.8-5 10.3 0 3 .7 5.2 2 6.7a7.4 7.4 0 0 0 5.5 2.1c3.6-.1 6.9-2 10-5.7zM424.8 435.3a23.7 23.7 0 0 1-4.3-15v-98.5h18.8v92.1c0 4.4.4 7.3 1.3 8.8.9 1.5 2.8 2.2 5.7 2.2l-1.6 16h-7c-5.8-.1-10.1-1.9-12.9-5.6zM468.4 435.3a35 35 0 0 1-12.5-14.7c-2.8-6.2-4.2-13-4.2-20.5 0-7.7 1.3-14.6 3.9-20.8a32.5 32.5 0 0 1 11.6-14.4 31.5 31.5 0 0 1 18.3-5.2c8.9 0 15.9 3.1 21 9.4a38.9 38.9 0 0 1 7.7 25.2c0 3-.3 6.4-.9 10h-42.1c.6 7.1 2.7 12.4 6.3 15.9 3.5 3.5 7.9 5.2 13.2 5.2 7.1 0 13.8-2.1 20.2-6.3l.5 16.4a47.6 47.6 0 0 1-22.7 5.2c-8 .1-14.8-1.7-20.3-5.4zm26.9-44.2c0-10.8-3.7-16.1-11-16.1-7.2 0-11.5 5.4-13 16.1h24zM533.5 439.5c-3.5-.9-7.1-2.3-10.7-4.2l1.7-16.6c7.3 5 13.7 7.5 19.3 7.5a14 14 0 0 0 8.1-2 6.5 6.5 0 0 0 2.8-5.6c0-2.5-.9-4.6-2.6-6.2a44.3 44.3 0 0 0-10.1-6 47 47 0 0 1-14.5-9.9c-3-3.4-4.5-8.1-4.5-14 0-6.8 2.4-12.3 7.2-16.4a28.5 28.5 0 0 1 19.4-6.3c7.3 0 14.2 1.9 20.5 5.8l-1.7 16.1c-3-2.6-5.9-4.6-8.7-6-2.8-1.4-5.7-2-8.9-2-3 0-5.5.7-7.3 2a6.5 6.5 0 0 0-2.7 5.6c0 2.4 1 4.4 2.9 5.9a81 81 0 0 0 11.7 6.8c5.8 3 10.2 6.3 12.9 9.9 2.8 3.6 4.2 8.3 4.2 14 0 7.1-2.5 12.7-7.4 16.8-5 4.1-11.6 6.2-20 6.2a52 52 0 0 1-11.6-1.4z"/><path d="M876.9 366.8l-2.6-23.1-7.7 15.9-7.7-15.9-2.6 23.1h-6.5l4.5-36h5.1l7.1 15.8 7.1-15.8h5.1l4.5 36h-6.3zM887.9 365.4a7 7 0 0 1-2-5.3c0-2.4.7-4.3 2.1-5.7a14 14 0 0 1 4.9-3.1c1.9-.6 3.6-1 5.1-1 0-1.5-.3-2.6-.8-3.2-.5-.7-1.5-1-2.8-1-1 0-2 .2-3 .5s-2 .8-3.2 1.5l-.4-5.2a17 17 0 0 1 8.3-2.3c2.6 0 4.6.8 6 2.3 1.5 1.5 2.2 3.9 2.2 7.2v7.8l.2 2.8c.1.6.3 1 .5 1.1.2.2.6.2 1.1.2h.8l-.4 5.2h-2.7a5 5 0 0 1-4.6-3c-.9 1-1.9 1.7-2.8 2.2-1 .5-2.1.7-3.4.7a6 6 0 0 1-5.1-1.7zm10.3-4.9v-5.9c-1.6.2-3 .7-4.1 1.5-1.1.8-1.6 1.9-1.6 3.4 0 1 .2 1.7.7 2.2.4.5 1 .7 1.8.7 1 0 2.1-.6 3.2-1.9zM909.4 341.1h5.4l.4 2.7c1-1.1 1.9-1.9 2.7-2.4.8-.5 1.8-.8 3-.8l1.3.2-.5 6.2c-.5-.2-1.1-.3-1.6-.3a4 4 0 0 0-2.2.6c-.7.4-1.4 1-2.3 1.9v17.5h-6.2v-25.6zM924 328.2h6.2v23.1l6.3-10.3h7l-7.6 12.1 7.8 13.6h-7l-6.5-11.7v11.7H924v-38.5z"/><path d="M949.1 365.5a11.3 11.3 0 0 1-4.1-4.8c-.9-2-1.4-4.3-1.4-6.7 0-2.5.4-4.8 1.3-6.8s2.1-3.6 3.8-4.7c1.7-1.1 3.7-1.7 6-1.7 2.9 0 5.2 1 6.9 3.1s2.5 4.8 2.5 8.3l-.3 3.3H950c.2 2.3.9 4.1 2.1 5.2a6.1 6.1 0 0 0 4.3 1.7c2.3 0 4.5-.7 6.6-2.1l.2 5.4a16 16 0 0 1-7.5 1.7 13 13 0 0 1-6.6-1.9zM958 351c0-3.5-1.2-5.3-3.6-5.3-2.4 0-3.8 1.8-4.3 5.3h7.9zM970.8 365.6a7.3 7.3 0 0 1-1.6-5v-14.2h-2.9l.6-5.2h2.3v-5.7l6.2-.7v6.3h4.5v5.2h-4.5V359c0 1.1.2 1.8.6 2.3.4.5 1.1.7 2 .7h1.9l-.6 5.2h-4.1c-1.9.1-3.4-.5-4.4-1.6zM983.1 330.8h6.2v6.4h-6.2v-6.4zm0 10.3h6.2v25.7h-6.2v-25.7zM1011.9 343.2c1.4 1.7 2 4 2 6.9v16.7h-6.2v-15.9c0-3.5-1.2-5.2-3.5-5.2-1.6 0-2.9.7-4 2.2v18.9H994v-25.7h5.3l.3 2a8.8 8.8 0 0 1 6.3-2.4c2.7 0 4.6.8 6 2.5zM1020.1 377.7a6 6 0 0 1-2.8-5.3c0-1.3.3-2.4 1-3.3.7-1 1.6-1.8 2.9-2.6-1.5-.9-2.2-2-2.2-3.5s.8-2.7 2.4-3.6a9.4 9.4 0 0 1-2.9-3.6c-.7-1.5-1-3.1-1-4.9 0-1.9.4-3.6 1.1-5.1a8 8 0 0 1 3.2-3.6c1.4-.9 3-1.3 4.9-1.3 2.2 0 4.1.6 5.7 1.8a6.5 6.5 0 0 1 5.6-1.7l-.5 4-1-.1c-.7 0-1.4.1-2 .4 1 1.6 1.4 3.6 1.4 5.8a12 12 0 0 1-1.1 5.1 8.8 8.8 0 0 1-8.1 5.1l-2-.2a1 1 0 0 0-.5.9c0 .3.1.6.4.8.2.2.7.4 1.2.5l5.3 1.2c2.5.6 4.3 1.4 5.4 2.6s1.7 2.7 1.7 4.8c0 1.6-.5 3-1.4 4.2a8.4 8.4 0 0 1-3.8 2.8 14 14 0 0 1-5.6 1c-2.9-.3-5.4-.9-7.3-2.2zm11.5-3.5c1-.5 1.5-1.3 1.5-2.3 0-.8-.3-1.5-.8-1.9-.5-.5-1.4-.8-2.8-1.2l-4.4-1.1c-.9.5-1.6 1.1-2.1 1.7-.5.6-.7 1.3-.7 2.1 0 1.1.5 1.9 1.5 2.5 1 .6 2.3.9 4 .9 1.5.1 2.8-.2 3.8-.7zm-2.2-19.4c.6-1 1-2.4 1-4a7 7 0 0 0-1-4c-.6-1-1.5-1.5-2.6-1.5a3 3 0 0 0-2.7 1.5c-.6 1-.9 2.3-.9 4 0 1.7.3 3 .9 4a3 3 0 0 0 2.7 1.5c1.1 0 2-.5 2.6-1.5z"/></symbol>
<!-- UI ICONS -->
  <symbol id="h2bg" viewBox="0 0 80 4"><path d="M0 .9c0-.7 7.1-1 15.8-.8l57.7 1.5c8.7.2 8.7.6.1.8L15.7 3.9C7.1 4.2 0 3.8 0 3.1V.9z"/></symbol>
  <symbol id="play" viewBox="0 0 64 64"><path d="M32 0C14.4 0 0 14.4 0 32s14.4 32 32 32 32-14.4 32-32S49.6 0 32 0zm0 62.4a30.4 30.4 0 1 1 0-60.8 30.4 30.4 0 0 1 0 60.8z"/><path d="M46.4 29.3l-18-10.4a3.1 3.1 0 0 0-4.7 2.7v20.7c0 2.4 2.6 3.9 4.7 2.7l18-10.4c2.1-1.1 2.1-4.1 0-5.3z"/></symbol>
  <symbol id="zoom" viewBox="0 0 64 64"><path d="M32 0C14.4 0 0 14.4 0 32s14.4 32 32 32 32-14.4 32-32S49.6 0 32 0zm0 62.4a30.4 30.4 0 1 1 0-60.8 30.4 30.4 0 0 1 0 60.8z"/><path d="M44.5 17.6L30 21.5c-1.2.3-1.5 1.8-.7 2.6l10.6 10.6c.8.8 2.3.5 2.6-.7l3.9-14.4c.3-1.2-.8-2.3-1.9-2zM24.1 29.3c-.8-.8-2.3-.5-2.6.7l-3.9 14.4c-.3 1.2.8 2.2 1.9 1.9L34 42.5c1.2-.3 1.5-1.8.7-2.6L24.1 29.3z"/></symbol>
  <symbol id="close" viewBox="0 0 64 64"><path d="M39.2 32L62.5 8.7c2-2 2-5.2 0-7.2a5 5 0 0 0-7.2 0L32 24.8 8.7 1.5c-2-2-5.2-2-7.2 0s-2 5.2 0 7.2L24.8 32 1.5 55.3a5 5 0 0 0 0 7.2 5 5 0 0 0 7.2 0L32 39.2l23.3 23.3a5 5 0 0 0 7.2 0c2-2 2-5.2 0-7.2L39.2 32z"/></symbol>
  <symbol id="adress" viewBox="0 0 64 64"><path d="M52 28.8L36.8 61c-.9 1.8-2.8 3-4.8 3s-3.9-1.1-4.7-3L12 28.8a21.4 21.4 0 1 1 40 0zM32 10.7A10.6 10.6 0 1 0 32 32a10.6 10.6 0 1 0 0-21.3z"/></symbol>
  <symbol id="phone" viewBox="0 0 64 64"><path d="M62.6 56.9c-1 2.2-3.5 3.7-5.5 4.8a17 17 0 0 1-8.5 2.3c-4.2 0-8-1.7-11.9-3.1-2.8-1-5.5-2.2-8-3.8A78 78 0 0 1 6.9 35.3a45.2 45.2 0 0 1-3.8-8C1.7 23.5 0 19.6 0 15.4c0-3 .9-5.8 2.3-8.5 1.1-2 2.6-4.6 4.8-5.5C8.6.7 11.8 0 13.5 0l1 .1c1 .3 2 2.5 2.4 3.5l4.4 7.8c.7 1.2 2.1 2.6 2.1 4 0 2.8-8.2 6.8-8.2 9.3 0 1.2 1.1 2.8 1.8 3.9a45 45 0 0 0 18.6 18.6c1.1.6 2.7 1.8 3.9 1.8 2.5 0 6.5-8.2 9.3-8.2 1.4 0 2.9 1.4 4 2.1l7.8 4.4c.9.5 3.1 1.5 3.5 2.4l.1 1c-.2 1.5-.9 4.7-1.6 6.2z"/></symbol>
  <symbol id="fax" viewBox="0 0 64 64"><path d="M16 19.4v38.9c0 3.1-2.6 5.7-5.7 5.7H5.7A5.8 5.8 0 0 1 0 58.3V19.4c0-3.1 2.6-5.7 5.7-5.7h4.6c3.1 0 5.7 2.6 5.7 5.7zm48 8v27.4c0 5-4.1 9.1-9.1 9.1H24a5.8 5.8 0 0 1-5.7-5.7V3.4c0-1.9 1.5-3.4 3.4-3.4h24a10 10 0 0 1 5.9 2.4L57 7.9c1.3 1.3 2.4 4 2.4 5.9v5.8a9 9 0 0 1 4.6 7.8zm-9.1-13.7h-5.7a3.4 3.4 0 0 1-3.4-3.4V4.6H22.9v18.3h32v-9.2zM33.1 32c0-.6-.5-1.1-1.1-1.1h-4.6c-.6 0-1.1.5-1.1 1.1v4.6c0 .6.5 1.1 1.1 1.1H32c.6 0 1.1-.5 1.1-1.1V32zm0 9.1c0-.6-.5-1.1-1.1-1.1h-4.6c-.6 0-1.1.5-1.1 1.1v4.6c0 .6.5 1.1 1.1 1.1H32c.6 0 1.1-.5 1.1-1.1v-4.6zm0 9.2c0-.6-.5-1.1-1.1-1.1h-4.6c-.6 0-1.1.5-1.1 1.1v4.6c0 .6.5 1.1 1.1 1.1H32c.6 0 1.1-.5 1.1-1.1v-4.6zM42.3 32c0-.6-.5-1.1-1.1-1.1h-4.6c-.6 0-1.1.5-1.1 1.1v4.6c0 .6.5 1.1 1.1 1.1h4.6c.6 0 1.1-.5 1.1-1.1V32zm0 9.1c0-.6-.5-1.1-1.1-1.1h-4.6c-.6 0-1.1.5-1.1 1.1v4.6c0 .6.5 1.1 1.1 1.1h4.6c.6 0 1.1-.5 1.1-1.1v-4.6zm0 9.2c0-.6-.5-1.1-1.1-1.1h-4.6c-.6 0-1.1.5-1.1 1.1v4.6c0 .6.5 1.1 1.1 1.1h4.6c.6 0 1.1-.5 1.1-1.1v-4.6zM51.4 32c0-.6-.5-1.1-1.1-1.1h-4.6c-.6 0-1.1.5-1.1 1.1v4.6c0 .6.5 1.1 1.1 1.1h4.6c.6 0 1.1-.5 1.1-1.1V32zm0 9.1c0-.6-.5-1.1-1.1-1.1h-4.6c-.6 0-1.1.5-1.1 1.1v4.6c0 .6.5 1.1 1.1 1.1h4.6c.6 0 1.1-.5 1.1-1.1v-4.6zm0 9.2c0-.6-.5-1.1-1.1-1.1h-4.6c-.6 0-1.1.5-1.1 1.1v4.6c0 .6.5 1.1 1.1 1.1h4.6c.6 0 1.1-.5 1.1-1.1v-4.6z"/></symbol>
  <symbol id="facebook" viewBox="0 0 64 64"><path d="M64 3.5v56.9c0 2-1.6 3.5-3.5 3.5H44.2V39.2h8.3l1.3-9.7h-9.5v-6.2c0-2.8.7-4.7 4.8-4.7h5.1V10a71 71 0 0 0-7.4-.4c-7.4 0-12.5 4.5-12.5 12.7v7.1H26v9.7h8.3V64H3.5c-2 0-3.5-1.6-3.5-3.5v-57C0 1.6 1.6 0 3.5 0h56.9c2 0 3.6 1.6 3.6 3.5z"/></symbol>
  <symbol id="prev" viewBox="0 0 20 80"><path d="M19.1 0l.4.1c.4.2.6.8.4 1.3L1.9 40l18 38.6c.2.5 0 1.1-.4 1.3-.4.2-1 0-1.2-.4L.1 40.5v-.9L18.3.6c.1-.4.5-.6.8-.6z"/></symbol>
  <symbol id="next" viewBox="0 0 20 80"><path d="M.9 80l-.4-.1c-.4-.2-.6-.8-.4-1.3l18-38.6L.1 1.4C-.1.9.1.3.5.1c.4-.2 1 0 1.2.4l18.2 39v.9l-18.2 39c-.1.4-.5.6-.8.6z"/></symbol>
  <symbol id="menu" viewBox="0 0 20 20"><path d="M0 3h20v2h-20v-2zM0 7h20v2h-20v-2zM0 11h20v2h-20v-2zM0 15h20v2h-20v-2z"></path></symbol>
</svg>